<svg width="62" height="24" viewBox="0 0 62 24" fill="none" xmlns="http://www.w3.org/2000/svg">
<path d="M11.5556 18.2297C15.6054 18.2297 18.2044 14.3071 18.2044 10.8787C18.2044 7.94578 16.4263 5.76904 13.1676 5.76904C9.1512 5.76904 6.51744 9.69164 6.51744 13.12C6.51744 16.0542 8.29436 18.2297 11.5543 18.2297M23.9097 23.5381L28.618 6.06705H23.8291C24.4106 7.36962 24.7231 8.82864 24.7231 10.3858C24.7231 17.4077 18.9943 23.9677 10.9951 23.9677C4.44416 23.9677 0 19.4826 0 13.6167C0 6.59354 5.72756 0.0335265 13.7268 0.0335265C17.3972 0.0335265 20.4054 1.4404 22.3423 3.70902L23.219 0.461921H43.3988L42.6287 3.375C45.1546 1.29139 48.5237 0 52.452 0C57.0623 0 60.419 1.87997 62 3.92384L57.7208 8.0774C56.3704 6.72641 54.4943 5.70447 52.0254 5.70447C47.3841 5.70447 44.1899 9.29801 44.1899 13.5509C44.1899 16.7819 46.5273 18.4619 49.3582 18.4619C50.6416 18.4619 51.6299 18.1987 52.4198 17.8361L53.3423 14.7368H46.133L47.3506 10.0555H60.6831L57.3922 21.6929C55.1205 23.0116 52.1569 24 48.7667 24C43.2698 24 37.6724 20.9007 37.6724 13.8129C37.6724 10.9954 38.5528 8.30836 40.1326 6.06581H35.0052L30.3292 23.5381H23.9097Z" fill="#FF6900"/>
<path d="M57.8311 22.6677C57.8311 21.9053 58.4486 21.3428 59.1789 21.3428C59.9093 21.3428 60.5206 21.9053 60.5206 22.6677C60.5206 23.4301 59.9031 24.0001 59.1789 24.0001C58.4548 24.0001 57.8311 23.4376 57.8311 22.6677ZM59.1789 23.7778C59.7791 23.7778 60.2528 23.3072 60.2528 22.6677C60.2528 22.0282 59.7791 21.5638 59.1789 21.5638C58.5788 21.5638 58.0977 22.0381 58.0977 22.6677C58.0977 23.2972 58.5713 23.7778 59.1789 23.7778ZM58.8987 23.4376H58.6668V21.9053H59.2496C59.6117 21.9053 59.7903 22.0394 59.7903 22.3411C59.7903 22.6155 59.6179 22.7347 59.3935 22.7633L59.8287 23.4376H59.5695L59.1653 22.7732H58.8987V23.4376ZM59.1752 22.577C59.3724 22.577 59.5472 22.5634 59.5472 22.3275C59.5472 22.1375 59.3749 22.1027 59.2137 22.1027H58.8975V22.577H59.174H59.1752Z" fill="#FF6900"/>
</svg>
