<svg width="72" height="28" viewBox="0 0 72 28" fill="none" xmlns="http://www.w3.org/2000/svg">
<path d="M13.4194 21.268C18.1224 21.268 21.1406 16.6916 21.1406 12.6918C21.1406 9.27007 19.0757 6.73055 15.2914 6.73055C10.6272 6.73055 7.56864 11.3069 7.56864 15.3067C7.56864 18.7299 9.63216 21.268 13.4179 21.268M27.7661 27.4611L33.2338 7.07823H27.6725C28.3478 8.59789 28.7107 10.3001 28.7107 12.1167C28.7107 20.309 22.0579 27.9623 12.7685 27.9623C5.16096 27.9623 0 22.7297 0 15.8862C0 7.69247 6.65136 0.0391142 15.9408 0.0391142C20.2032 0.0391142 23.6966 1.68046 25.9459 4.32719L26.964 0.538907H50.3986L49.5043 3.9375C52.4376 1.50662 56.3501 0 60.912 0C66.2659 0 70.164 2.1933 72 4.57781L67.0306 9.42363C65.4624 7.84748 63.2837 6.65522 60.4166 6.65522C55.0267 6.65522 51.3173 10.8477 51.3173 15.8094C51.3173 19.5788 54.0317 21.5389 57.3192 21.5389C58.8096 21.5389 59.9573 21.2318 60.8746 20.8088L61.9459 17.1929H53.5738L54.9878 11.7314H70.4707L66.649 25.3084C64.0109 26.8469 60.5693 28 56.6323 28C50.2488 28 43.7486 24.3841 43.7486 16.1151C43.7486 12.828 44.771 9.69309 46.6056 7.07678H40.6512L35.221 27.4611H27.7661Z" fill="white"/>
<path d="M67.1587 26.4456C67.1587 25.5562 67.8758 24.8999 68.724 24.8999C69.5721 24.8999 70.2821 25.5562 70.2821 26.4456C70.2821 27.3351 69.5649 28.0001 68.724 28.0001C67.883 28.0001 67.1587 27.3438 67.1587 26.4456ZM68.724 27.7408C69.4209 27.7408 69.971 27.1917 69.971 26.4456C69.971 25.6996 69.4209 25.1578 68.724 25.1578C68.027 25.1578 67.4683 25.7112 67.4683 26.4456C67.4683 27.1801 68.0184 27.7408 68.724 27.7408ZM68.3985 27.3438H68.1293V25.5562H68.8061C69.2265 25.5562 69.4339 25.7126 69.4339 26.0646C69.4339 26.3848 69.2337 26.5239 68.9731 26.5572L69.4785 27.3438H69.1776L68.7081 26.5688H68.3985V27.3438ZM68.7197 26.3399C68.9486 26.3399 69.1517 26.3239 69.1517 26.0487C69.1517 25.8271 68.9515 25.7865 68.7643 25.7865H68.3971V26.3399H68.7182H68.7197Z" fill="white"/>
</svg>
